<?xml version="1.0" encoding="utf-8" standalone="no"?>
<svg xmlns="http://www.w3.org/2000/svg" xmlns:svg="http://www.w3.org/2000/svg" xmlns:oryx="http://www.b3mn.org/oryx" xmlns:xlink="http://www.w3.org/1999/xlink" width="150" height="140" version="1.0">
  <g pointer-events="fill" transform="xcale(0.7,0.7)" stroke-width="0.25" class="SlideGroup">
    <defs>
      <radialGradient id="background" cx="10%" cy="10%" r="100%" fx="10%" fy="10%">
        <stop offset="0%" stop-color="#ffffff" stop-opacity="1" />
        <stop id="fill_el" offset="100%" stop-color="#ffffcc" stop-opacity="1" />
      </radialGradient>
    </defs>
    <rect x="0" y="0" width="77" height="47" id="bg_frame" fill="url(#background)" stroke="none" stroke-width="0.5" />
    <path d="M 67,28 L 58,28 58,19 67,19 67,28 Z" fill="rgb(255,255,255)" stroke="none" />
    <path d="M 67,28 L 58,28 58,19 67,19 67,28 Z" fill="none" stroke="rgb(15,15,15)" />
    <path d="M 50,23 L 37,28 37,19 50,23 Z" fill="rgb(15,15,15)" stroke="none" />
    <path d="M 50,23 L 37,28 37,19 50,23 Z" fill="none" stroke="rgb(15,15,15)" />
    <path d="M 26,23 L 50,23" fill="none" stroke="rgb(15,15,15)" />
    <path d="M 18,28 L 9,28 9,19 18,19 18,28 Z" fill="none" stroke="rgb(15,15,15)" />
    <path d="M 18,14 L 9,14 9,6 18,6 18,14 Z" fill="none" stroke="rgb(15,15,15)" />
    <path d="M 18,41 L 9,41 9,32 18,32 18,41 Z" fill="#ffffff" stroke="rgb(15,15,15)" />
  </g>
</svg>
