<?xml version="1.0" encoding="UTF-8" standalone="no"?>
<svg
   xmlns:dc="http://purl.org/dc/elements/1.1/"
   xmlns:cc="http://creativecommons.org/ns#"
   xmlns:rdf="http://www.w3.org/1999/02/22-rdf-syntax-ns#"
   xmlns:svg="http://www.w3.org/2000/svg"
   xmlns="http://www.w3.org/2000/svg"
   xmlns:sodipodi="http://sodipodi.sourceforge.net/DTD/sodipodi-0.dtd"
   xmlns:inkscape="http://www.inkscape.org/namespaces/inkscape"
   width="150"
   height="140"
   version="1.0"
   id="svg2"
   inkscape:version="0.48.4 r9939"
   sodipodi:docname="aggregat-icon-vorlage.svg">
  <metadata
     id="metadata51">
    <rdf:RDF>
      <cc:Work
         rdf:about="">
        <dc:format>image/svg+xml</dc:format>
        <dc:type
           rdf:resource="http://purl.org/dc/dcmitype/StillImage" />
        <dc:title></dc:title>
      </cc:Work>
    </rdf:RDF>
  </metadata>
  <defs
     id="defs49" />
  <sodipodi:namedview
     pagecolor="#ffffff"
     bordercolor="#666666"
     borderopacity="1"
     objecttolerance="10"
     gridtolerance="10"
     guidetolerance="10"
     inkscape:pageopacity="0"
     inkscape:pageshadow="2"
     inkscape:window-width="1150"
     inkscape:window-height="561"
     id="namedview47"
     showgrid="false"
     inkscape:zoom="1.6857143"
     inkscape:cx="-9.4067797"
     inkscape:cy="70.000002"
     inkscape:window-x="235"
     inkscape:window-y="256"
     inkscape:window-maximized="0"
     inkscape:current-layer="g4" />
  <g
     pointer-events="fill"
     transform="scale(1,1.430863)"
     class="SlideGroup"
     id="g4"
     style="stroke-width:0.25">
    <g
       id="id3"
       style="fill:#c1c191;fill-opacity:1"
       inkscape:export-filename="/ms-dev/gitrepos/global/stencilsets/camel/icons/aggregat.png"
       inkscape:export-xdpi="20.76923"
       inkscape:export-ydpi="20.76923">
      <path
         d="M 77,47 0,47 0,0 77,0 77,47 z"
         id="path16"
         inkscape:connector-curvature="0"
         style="fill:#c1c191;stroke:none;fill-opacity:1" />
      <path
         d="M 77,47 0,47 0,0 77,0 77,47 z"
         id="bg_frame"
         style="fill:#c1c191;stroke:#0f0f0f;stroke-width:1;fill-opacity:1"
         inkscape:connector-curvature="0" />
    </g>
    <g
       id="id4"
       inkscape:export-filename="/ms-dev/gitrepos/global/stencilsets/camel/icons/aggregat.png"
       inkscape:export-xdpi="20.76923"
       inkscape:export-ydpi="20.76923"
       transform="matrix(1.4465557,0,0,1,-25.83346,0)">
      <path
         d="m 67,28 -9,0 0,-9 9,0 0,9 z"
         id="path20"
         inkscape:connector-curvature="0"
         style="fill:#ffffff;stroke:none" />
      <path
         d="m 67,28 -9,0 0,-9 9,0 0,9 z"
         id="path22"
         inkscape:connector-curvature="0"
         style="fill:none;stroke:#0f0f0f" />
    </g>
    <g
       id="id5"
       inkscape:export-filename="/ms-dev/gitrepos/global/stencilsets/camel/icons/aggregat.png"
       inkscape:export-xdpi="20.76923"
       inkscape:export-ydpi="20.76923">
      <path
         d="m 50,23 -13,5 0,-9 13,4 z"
         id="path25"
         inkscape:connector-curvature="0"
         style="fill:#0f0f0f;stroke:none" />
      <path
         d="m 50,23 -13,5 0,-9 13,4 z"
         id="path27"
         inkscape:connector-curvature="0"
         style="fill:none;stroke:#0f0f0f" />
    </g>
    <g
       id="id6"
       inkscape:export-filename="/ms-dev/gitrepos/global/stencilsets/camel/icons/aggregat.png"
       inkscape:export-xdpi="20.76923"
       inkscape:export-ydpi="20.76923">
      <path
         d="m 26,23 24,0"
         id="path30"
         inkscape:connector-curvature="0"
         style="fill:none;stroke:#0f0f0f" />
    </g>
    <g
       id="id7"
       inkscape:export-filename="/ms-dev/gitrepos/global/stencilsets/camel/icons/aggregat.png"
       inkscape:export-xdpi="20.76923"
       inkscape:export-ydpi="20.76923"
       transform="matrix(1.5741431,0,0,1,-5.0814397,0)">
      <path
         d="m 18,28 -9,0 0,-9 9,0 0,9 z"
         id="path33"
         inkscape:connector-curvature="0"
         style="fill:#ffffff;stroke:none" />
      <path
         d="m 18,28 -9,0 0,-9 9,0 0,9 z"
         id="path35"
         inkscape:connector-curvature="0"
         style="fill:none;stroke:#0f0f0f" />
    </g>
    <g
       id="id8"
       inkscape:export-filename="/ms-dev/gitrepos/global/stencilsets/camel/icons/aggregat.png"
       inkscape:export-xdpi="20.76923"
       inkscape:export-ydpi="20.76923"
       transform="matrix(1.7655241,0,0,1,-6.7752529,0)">
      <path
         d="m 18,14 -9,0 0,-8 9,0 0,8 z"
         id="path38"
         inkscape:connector-curvature="0"
         style="fill:#ffffff;stroke:none" />
      <path
         d="m 18,14 -9,0 0,-8 9,0 0,8 z"
         id="path40"
         inkscape:connector-curvature="0"
         style="fill:none;stroke:#0f0f0f" />
    </g>
    <g
       id="id9"
       inkscape:export-filename="/ms-dev/gitrepos/global/stencilsets/camel/icons/aggregat.png"
       inkscape:export-xdpi="20.76923"
       inkscape:export-ydpi="20.76923"
       transform="matrix(1.5103494,0,0,1,-4.5168353,0)">
      <path
         d="m 18,41 -9,0 0,-9 9,0 0,9 z"
         id="path43"
         inkscape:connector-curvature="0"
         style="fill:#ffffff;stroke:none" />
      <path
         d="m 18,41 -9,0 0,-9 9,0 0,9 z"
         id="path45"
         inkscape:connector-curvature="0"
         style="fill:none;stroke:#0f0f0f" />
    </g>
  </g>
</svg>
