<?xml version="1.0" encoding="UTF-8" standalone="no"?>
<svg
   xmlns:dc="http://purl.org/dc/elements/1.1/"
   xmlns:cc="http://creativecommons.org/ns#"
   xmlns:rdf="http://www.w3.org/1999/02/22-rdf-syntax-ns#"
   xmlns:svg="http://www.w3.org/2000/svg"
   xmlns="http://www.w3.org/2000/svg"
   xmlns:sodipodi="http://sodipodi.sourceforge.net/DTD/sodipodi-0.dtd"
   xmlns:inkscape="http://www.inkscape.org/namespaces/inkscape"
   width="150"
   height="140"
   version="1.0"
   id="svg2"
   inkscape:version="0.48.4 r9939"
   sodipodi:docname="aggregat.svg">
  <metadata
     id="metadata41">
    <rdf:RDF>
      <cc:Work
         rdf:about="">
        <dc:format>image/svg+xml</dc:format>
        <dc:type
           rdf:resource="http://purl.org/dc/dcmitype/StillImage" />
        <dc:title></dc:title>
      </cc:Work>
    </rdf:RDF>
  </metadata>
  <defs
     id="defs39" />
  <sodipodi:namedview
     pagecolor="#ffffff"
     bordercolor="#666666"
     borderopacity="1"
     objecttolerance="10"
     gridtolerance="10"
     guidetolerance="10"
     inkscape:pageopacity="0"
     inkscape:pageshadow="2"
     inkscape:window-width="640"
     inkscape:window-height="480"
     id="namedview37"
     showgrid="false"
     inkscape:zoom="1.6857143"
     inkscape:cx="75"
     inkscape:cy="70"
     inkscape:window-x="0"
     inkscape:window-y="0"
     inkscape:window-maximized="0"
     inkscape:current-layer="svg2" />
  <g
     pointer-events="fill"
     transform="matrix(1,0,0,1.3871543,0,0.09678858)"
     class="SlideGroup"
     id="g4"
     style="stroke-width:0.25"
     inkscape:export-filename="/ms-dev/gitrepos/global/stencilsets/camel/icons/aggregat.png"
     inkscape:export-xdpi="20.9"
     inkscape:export-ydpi="20.9">
    <defs
       id="defs6">
      <radialGradient
         id="background"
         cx="5.8716102"
         cy="5.7479973"
         r="60.673306"
         fx="5.8716102"
         fy="5.7479973"
         gradientTransform="scale(1.2773327,0.78288136)"
         gradientUnits="userSpaceOnUse">
        <stop
           offset="0%"
           stop-color="#ffffff"
           stop-opacity="1"
           id="stop9" />
        <stop
           id="fill_el"
           offset="100%"
           stop-color="white"
           stop-opacity="1" />
      </radialGradient>
    </defs>
    <path
       d="M 77,47 0,47 0,0 77,0 77,47 z"
       id="path12"
       inkscape:connector-curvature="0"
       style="fill:none;stroke:none" />
    <path
       d="M 77,47 0,47 0,0 77,0 77,47 z"
       id="bg_frame"
       style="fill:url(#background);stroke:#0f0f0f;stroke-width:0.5"
       inkscape:connector-curvature="0" />
    <path
       d="m 67,28 -9,0 0,-9 9,0 0,9 z"
       id="path15"
       inkscape:connector-curvature="0"
       style="fill:#ffffff;stroke:none" />
    <path
       d="m 67,28 -9,0 0,-9 9,0 0,9 z"
       id="path17"
       inkscape:connector-curvature="0"
       style="fill:none;stroke:#0f0f0f" />
    <path
       d="m 50,23 -13,5 0,-9 13,4 z"
       id="path19"
       inkscape:connector-curvature="0"
       style="fill:#0f0f0f;stroke:none" />
    <path
       d="m 50,23 -13,5 0,-9 13,4 z"
       id="path21"
       inkscape:connector-curvature="0"
       style="fill:none;stroke:#0f0f0f" />
    <path
       d="m 26,23 24,0"
       id="path23"
       inkscape:connector-curvature="0"
       style="fill:none;stroke:#0f0f0f" />
    <path
       d="m 18,28 -9,0 0,-9 9,0 0,9 z"
       id="path25"
       inkscape:connector-curvature="0"
       style="fill:#ffffff;stroke:none" />
    <path
       d="m 18,28 -9,0 0,-9 9,0 0,9 z"
       id="path27"
       inkscape:connector-curvature="0"
       style="fill:none;stroke:#0f0f0f" />
    <path
       d="m 18,14 -9,0 0,-8 9,0 0,8 z"
       id="path29"
       inkscape:connector-curvature="0"
       style="fill:#ffffff;stroke:none" />
    <path
       d="m 18,14 -9,0 0,-8 9,0 0,8 z"
       id="path31"
       inkscape:connector-curvature="0"
       style="fill:none;stroke:#0f0f0f" />
    <path
       d="m 18,41 -9,0 0,-9 9,0 0,9 z"
       id="path33"
       inkscape:connector-curvature="0"
       style="fill:#ffffff;stroke:none" />
    <path
       d="m 18,41 -9,0 0,-9 9,0 0,9 z"
       id="path35"
       inkscape:connector-curvature="0"
       style="fill:none;stroke:#0f0f0f" />
  </g>
</svg>
