<?xml version="1.0" encoding="utf-8" standalone="no"?>
<svg xmlns:inkscape="http://www.inkscape.org/namespaces/inkscape" xmlns="http://www.w3.org/2000/svg" xmlns:svg="http://www.w3.org/2000/svg" xmlns:oryx="http://www.b3mn.org/oryx" xmlns:xlink="http://www.w3.org/1999/xlink" width="82" height="62" version="1.0">
  <g pointer-events="fill" oryx:minimumSize="80 60">
    <defs>
      <radialGradient id="background" cx="10%" cy="10%" r="100%" fx="10%" fy="10%">
        <stop offset="0%" stop-color="#ffffff" stop-opacity="1" />
        <stop id="fill_el" offset="100%" stop-color="#ffffcc" stop-opacity="1" />
      </radialGradient>
    </defs>
    <rect id="text_frame" oryx:anchors="bottom top right left" x="1" y="1" width="78" height="58" rx="10" ry="10" stroke="none" stroke-width="2" fill="none" />
    <rect id="bg_frame" oryx:resize="vertical horizontal" x="0" y="0" width="80" height="60" rx="4" ry="4" stroke="black" stroke-width="1" fill="url(#background) #ffffcc" />
    <text id="text2" oryx:anchors="left top" oryx:align="center top" oryx:fittoelem="text_frame" font-weight="bold" font-family="Helvetica" font-size="9" x="40" y="40" fill="black">Asciidoctor</text>
    <g transform="scale(0.8,0.8) translate(5,2)">
      <defs id="defs32">
        <marker id="arrow" viewBox="0 0 10 10" refX="1" refY="5" markerUnits="strokeWidth" orient="auto" markerWidth="8" markerHeight="14">
          <path d="M 0 0 L 10 5 L 0 10 z" />
        </marker>
        <marker id="end" refX="10" refY="5" markerUnits="userSpaceOnUse" markerWidth="10" markerHeight="10" orient="auto">
          <path id="arrowhead2" d="M 0 0 L 10 5 L 0 10 L 0 0" fill="black" stroke="black" />
        </marker>
      </defs>
      <g transform="scale(0.80,0.80) translate(0,2)">
  <path
     id="rect812"
     style="fill:#ffffff;fill-rule:evenodd;stroke:#000000;stroke-width:2.48773241;stroke-linecap:round;stroke-linejoin:round"
     d="m 3.2642829,1.2438662 c -1.1193147,0 -2.0204167,0.5608924 -2.0204167,1.2576581 l 0,29.1686547 c 0,0.696578 0.901102,1.257345 2.0204167,1.257345 l 47.2210251,0 c 1.119923,0 2.021126,-0.560767 2.021126,-1.257345 l 0,-29.1686547 c 0,-0.6965154 -0.901203,-1.2574077 -2.021126,-1.2574077 l -47.2210251,0 z"
     inkscape:connector-curvature="0" />
  <path
     id="path837"
     style="fill:#000000"
     d="m 43.799287,22.203065 0,-8.666 c 0,-0.519 0.161,-0.951 0.482,-1.294 0.33,-0.351 0.75,-0.527 1.262,-0.527 0.519,0 0.94,0.176 1.261,0.527 0.33,0.343 0.494,0.775 0.494,1.294 l 0,8.666 c 0,0.519 -0.164,0.958 -0.494,1.317 -0.321,0.351 -0.742,0.526 -1.261,0.526 -0.512,0 -0.932,-0.175 -1.262,-0.526 -0.321,-0.359 -0.482,-0.798 -0.482,-1.317 z m -0.34,-13.657 c 0,-0.571 0.204,-1.064 0.614,-1.481 0.41,-0.4169998 0.9,-0.6259998 1.47,-0.6259998 0.578,0 1.071,0.205 1.481,0.6149998 0.409,0.409 0.614,0.907 0.614,1.492 0,0.607 -0.205,1.111 -0.614,1.514 -0.41,0.402 -0.903,0.603 -1.481,0.603 -0.57,0 -1.06,-0.205 -1.47,-0.614 -0.41,-0.41 -0.614,-0.911 -0.614,-1.503 z m -4.652,13.657 0,-8.666 c 0,-0.519 0.161,-0.951 0.483,-1.294 0.329,-0.351 0.75,-0.527 1.262,-0.527 0.519,0 0.939,0.176 1.261,0.527 0.329,0.343 0.494,0.775 0.494,1.294 l 0,8.666 c 0,0.519 -0.165,0.958 -0.494,1.317 -0.322,0.351 -0.742,0.526 -1.261,0.526 -0.512,0 -0.933,-0.175 -1.262,-0.526 -0.322,-0.359 -0.483,-0.798 -0.483,-1.317 z m -0.34,-13.657 c 0,-0.571 0.205,-1.064 0.615,-1.481 0.409,-0.4169998 0.899,-0.6259998 1.47,-0.6259998 0.577,0 1.071,0.205 1.481,0.6149998 0.409,0.409 0.614,0.907 0.614,1.492 0,0.607 -0.205,1.111 -0.614,1.514 -0.41,0.402 -0.904,0.603 -1.481,0.603 -0.571,0 -1.061,-0.205 -1.47,-0.614 -0.41,-0.41 -0.615,-0.911 -0.615,-1.503 z m -10.465,9.324 c 0,-1.163 0.249,-2.234 0.746,-3.214 0.497,-0.987 1.192,-1.763 2.084,-2.326 0.9,-0.563 1.924,-0.844 3.072,-0.844 0.607,0 1.232,0.073 1.876,0.219 0.643,0.139 1.185,0.38 1.623,0.724 0.439,0.344 0.658,0.808 0.658,1.393 0,0.468 -0.138,0.86 -0.416,1.174 -0.271,0.314 -0.611,0.472 -1.021,0.472 -0.197,0 -0.391,-0.033 -0.581,-0.099 -0.183,-0.066 -0.369,-0.135 -0.559,-0.208 -0.183,-0.081 -0.381,-0.147 -0.593,-0.198 -0.205,-0.051 -0.464,-0.077 -0.779,-0.077 -0.57,0 -1.053,0.136 -1.448,0.406 -0.387,0.263 -0.68,0.622 -0.877,1.075 -0.19,0.446 -0.286,0.947 -0.286,1.503 0,0.541 0.096,1.046 0.286,1.514 0.19,0.461 0.464,0.826 0.822,1.097 0.366,0.271 0.798,0.406 1.295,0.406 0.563,0 1.13,-0.106 1.7,-0.318 0.571,-0.212 0.911,-0.318 1.02,-0.318 0.264,0 0.505,0.076 0.724,0.23 0.22,0.154 0.392,0.355 0.516,0.603 0.132,0.242 0.197,0.49 0.197,0.746 0,0.541 -0.237,0.998 -0.713,1.371 -0.468,0.373 -1.027,0.644 -1.678,0.812 -0.651,0.176 -1.24,0.264 -1.766,0.264 -0.87,0 -1.668,-0.161 -2.392,-0.483 -0.716,-0.322 -1.342,-0.779 -1.875,-1.371 -0.534,-0.6 -0.94,-1.288 -1.218,-2.063 -0.278,-0.782 -0.417,-1.612 -0.417,-2.49 z m -9.708,3.96 c 0,-0.497 0.139,-0.907 0.417,-1.228 0.285,-0.322 0.629,-0.483 1.031,-0.483 0.241,0 0.471,0.044 0.691,0.132 0.219,0.08 0.512,0.212 0.877,0.394 0.373,0.176 0.681,0.304 0.922,0.384 0.241,0.081 0.534,0.121 0.878,0.121 0.336,0 0.585,-0.066 0.745,-0.197 0.161,-0.139 0.242,-0.311 0.242,-0.516 0,-0.183 -0.051,-0.333 -0.154,-0.45 -0.102,-0.117 -0.237,-0.212 -0.406,-0.285 -0.168,-0.08 -0.406,-0.179 -0.713,-0.296 -0.307,-0.117 -0.789,-0.307 -1.448,-0.571 -0.687,-0.292 -1.217,-0.566 -1.59,-0.822 -0.373,-0.264 -0.662,-0.596 -0.867,-0.999 -0.205,-0.409 -0.307,-0.917 -0.307,-1.524 0,-0.688 0.183,-1.339 0.548,-1.953 0.373,-0.614 0.904,-1.108 1.591,-1.481 0.695,-0.38 1.488,-0.57 2.38,-0.57 0.381,0 0.805,0.047 1.273,0.142 0.468,0.088 0.911,0.238 1.327,0.45 0.425,0.205 0.768,0.468 1.032,0.79 0.27,0.322 0.405,0.702 0.405,1.141 0,0.285 -0.065,0.545 -0.197,0.779 -0.124,0.226 -0.3,0.402 -0.527,0.526 -0.219,0.117 -0.464,0.176 -0.735,0.176 -0.146,0 -0.307,-0.033 -0.482,-0.099 -0.168,-0.066 -0.41,-0.172 -0.724,-0.318 -0.307,-0.146 -0.589,-0.26 -0.845,-0.34 -0.256,-0.081 -0.508,-0.121 -0.757,-0.121 -0.256,0 -0.475,0.062 -0.658,0.187 -0.176,0.124 -0.263,0.31 -0.263,0.559 0,0.285 0.285,0.548 0.855,0.79 0.571,0.234 1.233,0.504 1.986,0.812 0.76,0.307 1.389,0.72 1.887,1.239 0.504,0.519 0.757,1.218 0.757,2.095 0,0.805 -0.202,1.511 -0.604,2.118 -0.402,0.599 -0.95,1.06 -1.645,1.382 -0.688,0.322 -1.437,0.483 -2.249,0.483 -1.192,0 -2.271,-0.224 -3.236,-0.67 -0.958,-0.453 -1.437,-1.045 -1.437,-1.777 z m -0.944,-8.293 0,8.666 c 0,0.527 -0.164,0.966 -0.493,1.317 -0.329,0.351 -0.75,0.526 -1.262,0.526 -0.402,0 -0.742,-0.11 -1.02,-0.329 -0.271,-0.219 -0.475,-0.483 -0.614,-0.79 -0.395,0.483 -0.834,0.827 -1.317,1.031 -0.475,0.212 -1.042,0.319 -1.7,0.319 -1.002,0 -1.916,-0.282 -2.743,-0.845 -0.819,-0.571 -1.469,-1.346 -1.9521,-2.326 -0.4754,-0.987 -0.7131,-2.066 -0.7131,-3.236 0,-1.155 0.2377,-2.223 0.7131,-3.203 0.4831,-0.987 1.1371,-1.763 1.9631,-2.326 0.827,-0.57 1.737,-0.855 2.732,-0.855 0.665,0 1.232,0.102 1.7,0.307 0.476,0.205 0.914,0.552 1.317,1.042 0.131,-0.3 0.336,-0.56 0.614,-0.779 0.278,-0.227 0.618,-0.34 1.02,-0.34 0.512,0 0.933,0.176 1.262,0.527 0.329,0.343 0.493,0.775 0.493,1.294 z m -5.912,1.349 c -0.746,0 -1.335,0.286 -1.767,0.856 -0.424,0.57 -0.636,1.28 -0.636,2.128 0,0.541 0.095,1.046 0.285,1.514 0.191,0.461 0.465,0.826 0.823,1.097 0.366,0.271 0.797,0.406 1.295,0.406 0.753,0 1.342,-0.285 1.766,-0.856 0.424,-0.578 0.636,-1.298 0.636,-2.161 0,-0.856 -0.212,-1.565 -0.636,-2.128 -0.424,-0.57 -1.013,-0.856 -1.766,-0.856 z"
     inkscape:connector-curvature="0" />
      </g>
      <line x1="1" y1="33" x2="42" y2="33" stroke="black" stroke-width="1" marker-end="url(#end)" />
      <rect x="52" y="24" width="27" height="18" rx="1" ry="1" fill="#ffffff" stroke="#000000" stroke-width="0.5" />
    </g>
  </g>
</svg>
