<?xml version="1.0" encoding="utf-8" standalone="no"?>
<svg 
   xmlns:inkscape="http://www.inkscape.org/namespaces/inkscape"
	xmlns="http://www.w3.org/2000/svg" xmlns:svg="http://www.w3.org/2000/svg" xmlns:oryx="http://www.b3mn.org/oryx" xmlns:xlink="http://www.w3.org/1999/xlink" width="82" height="62" version="1.0">
  <g pointer-events="fill" oryx:minimumSize="80 60">
    <defs>
      <radialGradient id="background" cx="10%" cy="10%" r="100%" fx="10%" fy="10%">
        <stop offset="0%" stop-color="#ffffff" stop-opacity="1" />
        <stop id="fill_el" offset="100%" stop-color="#ffffcc" stop-opacity="1" />
      </radialGradient>
    </defs>
    <rect id="text_frame" oryx:anchors="bottom top right left" x="1" y="1" width="78" height="58" rx="10" ry="10" stroke="none" stroke-width="2" fill="none" />
    <rect id="bg_frame" oryx:resize="vertical horizontal" x="0" y="0" width="80" height="60" rx="4" ry="4" stroke="black" stroke-width="1" fill="url(#background) #ffffcc" />
		<text id="text2" oryx:anchors="left top" oryx:align="center top" oryx:fittoelem="text_frame" font-weight="bold" font-family="Helvetica" font-size="9" x="40" y="40" fill="blue">ConvertBodyTo</text>

	<g transform="scale(0.8,0.8) translate(5,2)">
		<path style="fill:#ffffff;stroke:none" id="path10" d="m 10.859674,40.280805 24.761633,0 0,-33.4236143 -24.761633,0 0,33.4236143 z" />
		<path style="fill:none;stroke:#0f0f0f;stroke-width:0.4919235" id="path12" d="m 10.859674,40.280805 24.761633,0 0,-33.4236143 -24.761633,0 0,33.4236143 z" />
		<path style="fill:#ffffff;stroke:none" id="path14" d="m 48.07999,40.280805 24.761633,0 0,-33.4236143 -24.761633,0 0,33.4236143 z" />
		<path style="fill:none;stroke:#0f0f0f;stroke-width:0.4919235" id="path16" d="m 48.07999,40.280805 24.761633,0 0,-33.4236143 -24.761633,0 0,33.4236143 z" />
		<path style="fill:none;stroke:#0f0f0f;stroke-width:1.22980881" id="path18" d="M 23.162624,12.311253 63.549522,34.640279" />
		<path style="fill:none;stroke:#0f0f0f;stroke-width:1.22980881" id="path20" d="M 23.162624,34.640279 63.549522,12.311253" />
  </g>
  </g>
</svg>
