<?xml version="1.0" encoding="utf-8" standalone="no"?>
<svg xmlns:inkscape="http://www.inkscape.org/namespaces/inkscape" xmlns="http://www.w3.org/2000/svg" xmlns:svg="http://www.w3.org/2000/svg" xmlns:oryx="http://www.b3mn.org/oryx" xmlns:xlink="http://www.w3.org/1999/xlink" width="82" height="62" version="1.0">
  <g pointer-events="fill" oryx:minimumSize="80 60">
    <defs>
      <radialGradient id="background" cx="10%" cy="10%" r="100%" fx="10%" fy="10%">
        <stop offset="0%" stop-color="#ffffff" stop-opacity="1" />
        <stop id="fill_el" offset="100%" stop-color="#ffffcc" stop-opacity="1" />
      </radialGradient>
    </defs>
    <rect id="text_frame" oryx:anchors="bottom top right left" x="1" y="1" width="78" height="58" rx="10" ry="10" stroke="none" stroke-width="2" fill="none" />
    <rect id="bg_frame" oryx:resize="vertical horizontal" x="0" y="0" width="80" height="60" rx="4" ry="4" stroke="black" stroke-width="1" fill="url(#background) #ffffcc" />
    <text id="text2" oryx:anchors="left top" oryx:align="center top" oryx:fittoelem="text_frame" font-weight="bold" font-family="Helvetica" font-size="9" x="40" y="40" fill="blue">Direct</text>
    <g transform="scale(0.8,0.8) translate(5,2)">
      <defs>
        <marker id="arrow" viewBox="0 0 10 10" refX="1" refY="5" markerUnits="strokeWidth" orient="auto" markerWidth="8" markerHeight="14">
          <path d="M 0 0 L 10 5 L 0 10 z" />
        </marker>
        <marker id="end" refX="10" refY="5" markerUnits="userSpaceOnUse" markerWidth="10" markerHeight="10" orient="auto">
          <path id="arrowhead2" d="M 0 0 L 10 5 L 0 10 L 0 0" fill="black" stroke="black" />
        </marker>
      </defs>
      <g transform="scale(0.6,0.6) translate(1,3)">
        <path d="M 24.402457,22.704778 C 22.257771,22.6862 20.989335,20.731013 19.408365,19.572399 16.526649,17.04089 13.534738,14.621996 10.724284,12.017633 9.2481476,10.248555 11.024739,7.6242209 13.144369,7.6802715 c 2.295546,-0.2356531 3.663827,1.8677587 5.304845,3.0829685 0.892116,0.76777 1.784232,1.535541 2.676348,2.303311 0.04256,-3.6026527 -0.08638,-7.2179115 0.06674,-10.8124611 0.734221,-2.98031169 5.690872,-2.97962756 6.425242,2.44e-4 0.152329,3.5945221 0.02475,7.2096044 0.06674,10.8122171 1.960003,-1.635219 3.824509,-3.397108 5.847268,-4.9491503 1.961029,-1.2150858 5.328646,0.048237 5.076708,2.6171063 -0.313608,1.777384 -2.157627,2.56946 -3.313968,3.765381 -3.030248,2.560697 -5.973343,5.235702 -9.059879,7.722596 -0.553926,0.317968 -1.194357,0.480098 -1.831962,0.482294 z m -10.939441,-13.364 c -2.315286,0.2940332 -0.821236,2.352022 0.360969,3.022407 3.217457,2.769012 6.434915,5.538024 9.652372,8.307036 1.471577,1.013621 2.549687,-0.762271 3.624336,-1.523258 3.055769,-2.629636 6.111538,-5.259272 9.167307,-7.888908 1.324822,-2.2616115 -2.072919,-2.179904 -2.930877,-0.654147 -2.542816,2.188301 -5.085633,4.376601 -7.628449,6.564902 0,-4.782145 0,-9.5642898 0,-14.3464347 -0.799818,-2.41976505 -3.274815,-0.3729848 -2.609471,1.4335367 0,4.3045827 0,8.609165 0,12.913748 -2.904349,-2.499996 -5.808699,-4.999992 -8.713048,-7.4999874 L 13.96272,9.4255512 13.463016,9.340778 l 0,0 z" fill="#555555" id="path5" />
        <path d="m 48.80689,43.171883 c -16.268963,0 -32.537927,0 -48.80689027920001,0 0,-7.652112 0,-15.304224 0,-22.956336 6.0772480792,0 12.1544962792,0 18.2317442792,0 0,1.501131 0,3.002261 0,4.503392 4.113809,0 8.227618,0 12.341427,0 0,-1.501131 0,-3.002261 0,-4.503392 6.077577,0 12.155155,0 18.232732,0 6.58e-4,7.651783 -0.0013,15.306198 9.87e-4,22.956336 z M 1.9746281,41.472169 c 14.9522149,0 29.9044309,0 44.8566459,0 0,-6.518969 0,-13.037939 0,-19.556908 -4.760829,0 -9.521658,0 -14.282487,0 0,1.501131 0,3.002261 0,4.503392 -5.430228,0 -10.860456,0 -16.290684,0 0,-1.501131 0,-3.002261 0,-4.503392 -4.761158,0 -9.5223166,0 -14.2834749,0 0,6.518969 0,13.037939 0,19.556908 z" fill="#555555" id="path9" />
      </g>
      <line x1="1" y1="33" x2="42" y2="33" stroke="black" stroke-width="1" marker-end="url(#end)" />
      <rect x="52" y="24" width="27" height="18" rx="1" ry="1" fill="#ffffff" stroke="#000000" stroke-width="0.5" />
    </g>
  </g>
</svg>
