<?xml version="1.0" encoding="utf-8" standalone="no"?>
<svg xmlns:inkscape="http://www.inkscape.org/namespaces/inkscape" xmlns="http://www.w3.org/2000/svg" xmlns:svg="http://www.w3.org/2000/svg" xmlns:oryx="http://www.b3mn.org/oryx" xmlns:xlink="http://www.w3.org/1999/xlink" width="82" height="62" version="1.0">
  <g pointer-events="fill" oryx:minimumSize="80 60">
    <defs>
      <radialGradient id="background" cx="10%" cy="10%" r="100%" fx="10%" fy="10%">
        <stop offset="0%" stop-color="#ffffff" stop-opacity="1" />
        <stop id="fill_el" offset="100%" stop-color="#ffffcc" stop-opacity="1" />
      </radialGradient>
    </defs>
    <rect id="text_frame" oryx:anchors="bottom top right left" x="1" y="1" width="78" height="58" rx="10" ry="10" stroke="none" stroke-width="2" fill="none" />
    <rect id="bg_frame" oryx:resize="vertical horizontal" x="0" y="0" width="80" height="60" rx="4" ry="4" stroke="black" stroke-width="1" fill="url(#background) #ffffcc" />
    <text id="text2" oryx:anchors="left top" oryx:align="center top" oryx:fittoelem="text_frame" font-weight="bold" font-family="Helvetica" font-size="9" x="40" y="40" fill="blue">Generic</text>
    <g transform="scale(0.8,0.8) translate(5,2)">
      <defs id="defs32">
        <marker id="arrow" viewBox="0 0 10 10" refX="1" refY="5" markerUnits="strokeWidth" orient="auto" markerWidth="8" markerHeight="14">
          <path d="M 0 0 L 10 5 L 0 10 z" />
        </marker>
        <marker id="end" refX="10" refY="5" markerUnits="userSpaceOnUse" markerWidth="10" markerHeight="10" orient="auto">
          <path id="arrowhead2" d="M 0 0 L 10 5 L 0 10 L 0 0" fill="black" stroke="black" />
        </marker>
      </defs>
      <g transform="scale(1.2,1.2) translate(1,3)">
        <path d="m 0.02750189,15.049131 c 6.99561441,0 13.99122911,0 20.98684311,0 0,1.238464 0,2.476927 0,3.71539 -6.995614,0 -13.9912287,0 -20.98684311,0 0,-1.238463 0,-2.476926 0,-3.71539 z" id="rect5" />
        <path d="m -1.7293682e-7,7.2749486 c 3.82416567293682,0 7.64833137293682,0 11.47249717293682,0 0,1.2379821 0,2.4759642 0,3.7139464 -3.8241658,0 -7.6483315,0 -11.47249717293682,0 0,-1.2379822 0,-2.4759643 0,-3.7139464 z" id="rect7" />
        <path d="m -1.7293682e-7,5.8847998e-8 c 1.91185347293682,0 3.82370697293682,0 5.73556037293682,0 0,1.237982141152002 0,2.475964241152002 0,3.713946341152002 -1.9118534,0 -3.8237069,0 -5.73556037293682,0 0,-1.2379821 0,-2.4759642 0,-3.713946341152002 z" id="rect9" />
      </g>
      <line x1="1" y1="33" x2="42" y2="33" stroke="black" stroke-width="1" marker-end="url(#end)" />
      <rect x="52" y="24" width="27" height="18" rx="1" ry="1" fill="#ffffff" stroke="#000000" stroke-width="0.5" />
    </g>
  </g>
</svg>
