<?xml version="1.0" encoding="utf-8" standalone="no"?>
<svg xmlns="http://www.w3.org/2000/svg" xmlns:svg="http://www.w3.org/2000/svg" xmlns:oryx="http://www.b3mn.org/oryx" xmlns:xlink="http://www.w3.org/1999/xlink" width="50" height="40" version="1.0">
  <g pointer-events="fill" transform="xcale(0.7,0.7)" stroke-width="0.25" class="SlideGroup">
    <defs>
      <radialGradient id="background" cx="10%" cy="10%" r="100%" fx="10%" fy="10%">
        <stop offset="0%" stop-color="#ffffff" stop-opacity="1" />
        <stop id="fill_el" offset="100%" stop-color="#ffffcc" stop-opacity="1" />
      </radialGradient>
    </defs>
    <g id="border">
      <path d="M 0,47 L 84,47 84,0 0,0 0,47 Z" fill="none" stroke="none" />
      <path id="bg_frame" d="M 0,47 L 84,47 84,0 0,0 0,47 Z" fill="url(#background) #ffffcc" stroke="rgb(15,15,15)" stroke-width="2.5" />
    </g>
    <g transform="xcale(0.7,0.7) translate(8,8)">
      <text id="endpoint_type" xml:space="preserve" text-anchor="middle" font-weight="bold" xont-family="serif" font-size="12" y="18" x="3" stroke-width="0" stroke="#000000" fill="black">
FTP
</text>
    </g>
    <g id="arrow">
      <path d="M 1,33 L 36,33" fill="none" stroke="black" />
      <path d="M 37,38 L 37,29 47,33 37,38 Z" fill="black" stroke="none" />
      <path d="M 37,38 L 37,29 47,33 37,38 Z" fill="none" stroke="black" />
      <path d="M 47,33 L 37,38 37,29 47,33 Z" fill="none" stroke="black" />
    </g>
    <g id="whiterect">
      <path d="M 52,42 L 79,42 79,24 52,24 52,42 Z" fill="rgb(255,255,255)" stroke="black" />
      <path d="M 52,42 L 79,42 79,24 52,24 52,42 Z" fill="none" stroke="black" />
    </g>
  </g>
</svg>
