<?xml version="1.0" encoding="utf-8" standalone="no"?>
<svg xmlns:inkscape="http://www.inkscape.org/namespaces/inkscape" xmlns="http://www.w3.org/2000/svg" xmlns:svg="http://www.w3.org/2000/svg" xmlns:oryx="http://www.b3mn.org/oryx" xmlns:xlink="http://www.w3.org/1999/xlink" width="82" height="62" version="1.0">
  <g pointer-events="fill" oryx:minimumSize="80 60">
    <defs>
      <radialGradient id="background" cx="10%" cy="10%" r="100%" fx="10%" fy="10%">
        <stop offset="0%" stop-color="#ffffff" stop-opacity="1" />
        <stop id="fill_el" offset="100%" stop-color="#ffffcc" stop-opacity="1" />
      </radialGradient>
    </defs>
    <rect id="text_frame" oryx:anchors="bottom top right left" x="1" y="1" width="78" height="58" rx="10" ry="10" stroke="none" stroke-width="2" fill="none" />
    <rect id="bg_frame" oryx:resize="vertical horizontal" x="0" y="0" width="80" height="60" rx="4" ry="4" stroke="black" stroke-width="1" fill="url(#background) #ffffcc" />
    <text id="" oryx:anchors="left top" oryx:align="center top" oryx:fittoelem="text_frame" font-weight="bold" font-family="Helvetica" font-size="11" x="40" y="40" fill="blue">onException</text>
    <g transform="scale(1.2,1.2) translate(10,2)">
      <path d="m 32.998474,6.3701987 c 2.327022,0 4.654044,0 6.981066,0 0,4.6540433 0,9.3080873 0,13.9621313 -4.654044,0 -9.308087,0 -13.962131,0 0,-4.654044 0,-9.308088 0,-13.9621313 2.327022,0 4.654043,0 6.981065,0 z" fill="#ffffff" id="path1325" />
      <path d="m 32.998474,6.3701987 c 2.327022,0 4.654044,0 6.981066,0 0,4.6540433 0,9.3080873 0,13.9621313 -4.654044,0 -9.308087,0 -13.962131,0 0,-4.654044 0,-9.308088 0,-13.9621313 2.327022,0 4.654043,0 6.981065,0 z" stroke-width="0.435" fill="none" stroke="#000000" id="path1327" stroke-linejoin="round" />
      <path d="m 1.2119022,13.897848 c 4.6879506,0 9.3759008,0 14.0638518,0" stroke-width="0.637" fill="none" stroke="#808080" id="path1332" stroke-linejoin="round" />
      <path d="m 22.749379,13.624552 c -2.3368,1.173288 -4.673599,2.346577 -7.010399,3.519865 0,-2.336799 0,-4.673599 0,-7.010398 2.3368,1.163511 4.673599,2.327022 7.010399,3.490533 z" fill="#808080" id="path1337" />
      <path d="m 22.749379,13.624552 c -2.3368,1.173288 -4.673599,2.346577 -7.010399,3.519865 0,-2.336799 0,-4.673599 0,-7.010398 2.3368,1.163511 4.673599,2.327022 7.010399,3.490533 z" stroke-width="0.733" fill="none" stroke="#808080" id="path1339" stroke-linejoin="round" />
      <path d="M 12.936785,24.935827 C 21.217175,17.319727 29.427943,9.6245486 37.812621,2.1234974" stroke-width="1.833" fill="none" stroke="#d11515" id="path3045" />
      <path d="M 37.312257,25.224558 C 29.189796,17.440249 20.992799,9.7304023 12.978591,1.8347672" stroke-width="1.833" fill="none" stroke="#d11515" id="path3047" />
    </g>
  </g>
</svg>
