<?xml version="1.0" encoding="utf-8" standalone="no"?>
<svg xmlns:inkscape="http://www.inkscape.org/namespaces/inkscape" xmlns="http://www.w3.org/2000/svg" xmlns:svg="http://www.w3.org/2000/svg" xmlns:oryx="http://www.b3mn.org/oryx" xmlns:xlink="http://www.w3.org/1999/xlink" width="82" height="62" version="1.0">
  <g pointer-events="fill" oryx:minimumSize="80 60">
    <defs>
      <radialGradient id="background" cx="10%" cy="10%" r="100%" fx="10%" fy="10%">
        <stop offset="0%" stop-color="#ffffff" stop-opacity="1" />
        <stop id="fill_el" offset="100%" stop-color="#ffffcc" stop-opacity="1" />
      </radialGradient>
    </defs>
    <rect id="text_frame" oryx:anchors="bottom top right left" x="1" y="1" width="78" height="58" rx="10" ry="10" stroke="none" stroke-width="2" fill="none" />
    <rect id="bg_frame" oryx:resize="vertical horizontal" x="0" y="0" width="80" height="60" rx="4" ry="4" stroke="black" stroke-width="1" fill="url(#background) #ffffcc" />
    <text id="text2" oryx:anchors="left top" oryx:align="center top" oryx:fittoelem="text_frame" font-weight="bold" font-family="Helvetica" font-size="9" x="40" y="40" fill="black">GroovyTemplate</text>
    <g transform="scale(0.8,0.8) translate(5,2)">
      <defs id="defs32">
        <marker id="arrow" viewBox="0 0 10 10" refX="1" refY="5" markerUnits="strokeWidth" orient="auto" markerWidth="8" markerHeight="14">
          <path d="M 0 0 L 10 5 L 0 10 z" />
        </marker>
        <marker id="end" refX="10" refY="5" markerUnits="userSpaceOnUse" markerWidth="10" markerHeight="10" orient="auto">
          <path id="arrowhead2" d="M 0 0 L 10 5 L 0 10 L 0 0" fill="black" stroke="black" />
        </marker>
      </defs>
      <g transform="scale(0.85,0.85) translate(0,2)">
  <path
     id="rect1089"
     style="color:#000000;display:block;fill:#ffffff;stroke:#000000;stroke-width:1.71095777;stroke-linecap:round;stroke-linejoin:round"
     d="m 0.85547888,25.678982 0,-24.82350312 40.97114212,0 0,24.82350312 -40.97114212,0 z"
     inkscape:connector-curvature="0" />
  <path
     id="rect826"
     style="fill:#000000;fill-rule:evenodd"
     d="m 5.78955,4.45465 31.101,0 c 0.699,0 1.262,0.5621 1.262,1.2604 l 0,6.229 c 0,0.698 -0.563,1.261 -1.262,1.261 l -31.101,0 c -0.699,0 -1.262,-0.563 -1.262,-1.261 l 0,-6.229 c 0,-0.6983 0.563,-1.2604 1.262,-1.2604 z"
     inkscape:connector-curvature="0" />
      </g>
      <line x1="1" y1="33" x2="42" y2="33" stroke="black" stroke-width="1" marker-end="url(#end)" />
      <rect x="52" y="24" width="27" height="18" rx="1" ry="1" fill="#ffffff" stroke="#000000" stroke-width="0.5" />
    </g>
  </g>
</svg>
