<?xml version="1.0" encoding="utf-8" standalone="no"?>
<svg xmlns="http://www.w3.org/2000/svg" xmlns:svg="http://www.w3.org/2000/svg" xmlns:oryx="http://www.b3mn.org/oryx" xmlns:xlink="http://www.w3.org/1999/xlink" width="150" height="140" version="1.0">
  <g pointer-events="fill" stroke-width="0.25" class="SlideGroup">
    <defs>
      <radialGradient id="background" cx="10%" cy="10%" r="100%" fx="10%" fy="10%">
        <stop offset="0%" stop-color="#ffffff" stop-opacity="1" />
        <stop id="fill_el" offset="100%" stop-color="#ffffcc" stop-opacity="1" />
      </radialGradient>
    </defs>
    <path d="M 0,47 L 78,47 78,0 0,0 0,47 Z" fill="none" stroke="none" />
    <path d="M 0,47 L 78,47 78,0 0,0 0,47 Z" id="bg_frame" fill="url(#background) #ffffcc" stroke="rgb(15,15,15)" stroke-width="0.5" />
    <path d="M 34,38 L 44,38 44,24 34,38 Z" fill="rgb(103,103,103)" stroke="none" />
    <path d="M 34,38 L 44,38 44,24 34,38 Z" fill="none" stroke="rgb(103,103,103)" />
    <path d="M 34,38 L 44,24 53,9 34,38 Z" fill="rgb(103,103,103)" stroke="none" />
    <path d="M 34,38 L 44,24 53,9 34,38 Z" fill="none" stroke="rgb(103,103,103)" />
    <path d="M 34,38 L 53,9 25,9 34,38 Z" fill="rgb(103,103,103)" stroke="none" />
    <path d="M 34,38 L 53,9 25,9 34,38 Z" fill="none" stroke="rgb(103,103,103)" />
    <path d="M 34,24 L 34,38 44,38 44,24 53,9 25,9 34,24 Z" fill="none" stroke="rgb(15,15,15)" />
    <path d="M 34,43 L 25,9 34,24 34,43 Z" fill="url(#background) #ffffcc" stroke="none" />
  </g>
</svg>
