<?xml version="1.0" encoding="utf-8" standalone="no"?>
<svg xmlns:inkscape="http://www.inkscape.org/namespaces/inkscape" xmlns="http://www.w3.org/2000/svg" xmlns:svg="http://www.w3.org/2000/svg" xmlns:oryx="http://www.b3mn.org/oryx" xmlns:xlink="http://www.w3.org/1999/xlink" width="82" height="62" version="1.0">
  <g pointer-events="fill" oryx:minimumSize="80 60">
    <defs>
      <radialGradient id="background" cx="10%" cy="10%" r="100%" fx="10%" fy="10%">
        <stop offset="0%" stop-color="#ffffff" stop-opacity="1" />
        <stop id="fill_el" offset="100%" stop-color="#ffffcc" stop-opacity="1" />
      </radialGradient>
    </defs>
    <rect id="text_frame" oryx:anchors="bottom top right left" x="1" y="1" width="78" height="58" rx="10" ry="10" stroke="none" stroke-width="2" fill="none" />
    <rect id="bg_frame" oryx:resize="vertical horizontal" x="0" y="0" width="80" height="60" rx="4" ry="4" stroke="black" stroke-width="1" fill="url(#background) #ffffcc" />
    <text id="" oryx:anchors="left top" oryx:align="center top" oryx:fittoelem="text_frame" font-weight="bold" font-family="Helvetica" font-size="11" x="40" y="40" fill="blue">Aggregat</text>
    <g transform="scale(1.5,1.5) translate(5,2)">
      <path d="m 33.436447,10.515467 2.357398,0 0,4.714831 -4.714795,0 0,-4.714831 2.357397,0 z" fill="#ffffff" id="path2638" />
      <path d="m 33.436447,10.515467 2.357398,0 0,4.714831 -4.714795,0 0,-4.714831 2.357397,0 z" stroke-width="0.158" fill="none" stroke="#000000" id="path2640" stroke-linejoin="round" />
      <path d="m 14.557389,12.872865 5.784555,0" stroke-width="0.495" fill="none" stroke="#000000" id="path2645" stroke-linejoin="round" />
      <path d="m 20.322137,10.574889 6.8147,2.297976 -6.8147,2.258362 0,-4.556338 z" id="path2650" />
      <path d="m 7.4851607,10.515467 2.3573976,0 0,4.714831 -4.7147952,0 0,-4.714831 2.3573976,0 z" fill="#ffffff" id="path2655" />
      <path d="m 7.4851607,10.515467 2.3573976,0 0,4.714831 -4.7147952,0 0,-4.714831 2.3573976,0 z" stroke-width="0.158" fill="none" stroke="#000000" id="path2657" stroke-linejoin="round" />
      <path d="m 7.4851607,3.4432392 2.3573976,0 0,4.7148306 -4.7147952,0 0,-4.7148306 2.3573976,0 z" fill="#ffffff" id="path2662" />
      <path d="m 7.4851607,3.4432392 2.3573976,0 0,4.7148306 -4.7147952,0 0,-4.7148306 2.3573976,0 z" stroke-width="0.158" fill="none" stroke="#000000" id="path2664" stroke-linejoin="round" />
      <path d="m 7.4851607,17.587696 2.3573976,0 0,4.714795 -4.7147952,0 0,-4.714795 2.3573976,0 z" fill="#ffffff" id="path2669" />
      <path d="m 7.4851607,17.587696 2.3573976,0 0,4.714795 -4.7147952,0 0,-4.714795 2.3573976,0 z" stroke-width="0.158" fill="none" stroke="#000000" id="path2671" stroke-linejoin="round" />
    </g>
  </g>
</svg>
