<?xml version="1.0" encoding="UTF-8" standalone="no"?>
<svg
   xmlns:dc="http://purl.org/dc/elements/1.1/"
   xmlns:cc="http://creativecommons.org/ns#"
   xmlns:rdf="http://www.w3.org/1999/02/22-rdf-syntax-ns#"
   xmlns:svg="http://www.w3.org/2000/svg"
   xmlns="http://www.w3.org/2000/svg"
   xmlns:sodipodi="http://sodipodi.sourceforge.net/DTD/sodipodi-0.dtd"
   xmlns:inkscape="http://www.inkscape.org/namespaces/inkscape"
   width="150"
   height="140"
   version="1.0"
   id="svg2"
   inkscape:version="0.48.4 r9939"
   sodipodi:docname="messagerouter.svg">
  <metadata
     id="metadata37">
    <rdf:RDF>
      <cc:Work
         rdf:about="">
        <dc:format>image/svg+xml</dc:format>
        <dc:type
           rdf:resource="http://purl.org/dc/dcmitype/StillImage" />
        <dc:title></dc:title>
      </cc:Work>
    </rdf:RDF>
  </metadata>
  <defs
     id="defs35" />
  <sodipodi:namedview
     pagecolor="#ffffff"
     bordercolor="#666666"
     borderopacity="1"
     objecttolerance="10"
     gridtolerance="10"
     guidetolerance="10"
     inkscape:pageopacity="0"
     inkscape:pageshadow="2"
     inkscape:window-width="640"
     inkscape:window-height="480"
     id="namedview33"
     showgrid="false"
     inkscape:zoom="1.6857143"
     inkscape:cx="75"
     inkscape:cy="70"
     inkscape:window-x="146"
     inkscape:window-y="185"
     inkscape:window-maximized="0"
     inkscape:current-layer="svg2" />
  <g
     pointer-events="fill"
     class="SlideGroup"
     id="g4"
     transform="matrix(1,0,0,1.3621766,0,0.09054416)"
     style="stroke-width:0.25"
     inkscape:export-filename="/ms-dev/gitrepos/global/stencilsets/camel/icons/messagerouter.png"
     inkscape:export-xdpi="20.9"
     inkscape:export-ydpi="20.9">
    <defs
       id="defs6">
      <radialGradient
         id="background"
         cx="5.8716102"
         cy="5.7479973"
         r="60.673306"
         fx="5.8716102"
         fy="5.7479973"
         gradientTransform="scale(1.2773327,0.78288136)"
         gradientUnits="userSpaceOnUse">
        <stop
           offset="0%"
           stop-color="#ffffff"
           stop-opacity="1"
           id="stop9" />
        <stop
           id="fill_el"
           offset="100%"
           stop-color="yellow"
           stop-opacity="1" />
      </radialGradient>
    </defs>
    <g
       id="id3">
      <path
         d="M 0,47 77,47 77,0 0,0 0,47 z"
         id="path13"
         inkscape:connector-curvature="0"
         style="fill:none;stroke:none" />
      <path
         d="M 0,47 77,47 77,0 0,0 0,47 z"
         id="bg_frame"
         style="fill:url(#background);stroke:#0f0f0f;stroke-width:0.5"
         inkscape:connector-curvature="0" />
    </g>
    <circle
       id="frame"
       cx="20"
       cy="23"
       r="3"
       d="m 23,23 c 0,1.656854 -1.343146,3 -3,3 -1.656854,0 -3,-1.343146 -3,-3 0,-1.656854 1.343146,-3 3,-3 1.656854,0 3,1.343146 3,3 z"
       sodipodi:cx="20"
       sodipodi:cy="23"
       sodipodi:rx="3"
       sodipodi:ry="3"
       style="fill:#000000;stroke:#000000;stroke-width:1" />
    <path
       d="m 5,23 15,0"
       id="path17"
       inkscape:connector-curvature="0"
       style="fill:none;stroke:#0f0f0f" />
    <circle
       id="circle19"
       cx="56"
       cy="8"
       r="3"
       d="m 59,8 c 0,1.6568542 -1.343146,3 -3,3 -1.656854,0 -3,-1.3431458 -3,-3 0,-1.6568542 1.343146,-3 3,-3 1.656854,0 3,1.3431458 3,3 z"
       sodipodi:cx="56"
       sodipodi:cy="8"
       sodipodi:rx="3"
       sodipodi:ry="3"
       style="fill:#000000;stroke:#000000;stroke-width:1" />
    <path
       d="M 56,8 71,8"
       id="path21"
       inkscape:connector-curvature="0"
       style="fill:none;stroke:#0f0f0f" />
    <circle
       id="circle23"
       cx="56"
       cy="23"
       r="3"
       d="m 59,23 c 0,1.656854 -1.343146,3 -3,3 -1.656854,0 -3,-1.343146 -3,-3 0,-1.656854 1.343146,-3 3,-3 1.656854,0 3,1.343146 3,3 z"
       sodipodi:cx="56"
       sodipodi:cy="23"
       sodipodi:rx="3"
       sodipodi:ry="3"
       style="fill:#000000;stroke:#000000;stroke-width:1" />
    <path
       d="m 56,23 15,0"
       id="path25"
       inkscape:connector-curvature="0"
       style="fill:none;stroke:#0f0f0f" />
    <circle
       id="circle27"
       cx="56"
       cy="37"
       r="3"
       d="m 59,37 c 0,1.656854 -1.343146,3 -3,3 -1.656854,0 -3,-1.343146 -3,-3 0,-1.656854 1.343146,-3 3,-3 1.656854,0 3,1.343146 3,3 z"
       sodipodi:cx="56"
       sodipodi:cy="37"
       sodipodi:rx="3"
       sodipodi:ry="3"
       style="fill:#000000;stroke:#000000;stroke-width:1" />
    <path
       d="m 56,38 15,0"
       id="path29"
       inkscape:connector-curvature="0"
       style="fill:none;stroke:#0f0f0f" />
    <path
       d="M 20,23 56,8"
       id="path31"
       inkscape:connector-curvature="0"
       style="fill:none;stroke:#0f0f0f" />
  </g>
</svg>
