<svg xmlns:dc="http://purl.org/dc/elements/1.1/" xmlns:cc="http://creativecommons.org/ns#" xmlns:rdf="http://www.w3.org/1999/02/22-rdf-syntax-ns#" xmlns:svg="http://www.w3.org/2000/svg" xmlns="http://www.w3.org/2000/svg" xmlns:xlink="http://www.w3.org/1999/xlink" version="1.1" viewBox="0 0 73.42 45.28" id="svg2">
  <metadata id="metadata56">
    <rdf:RDF>
      <cc:Work rdf:about="">
        <dc:format>image/svg+xml</dc:format>
        <dc:type rdf:resource="http://purl.org/dc/dcmitype/StillImage" />
        <dc:title></dc:title>
      </cc:Work>
    </rdf:RDF>
  </metadata>
  <g pointer-events="fill" stroke-width="0.25" class="SlideGroup">
  <defs id="defs4">
  </defs>
  <path d="m 36.7,0.14 h 36.567 v 45 H 0.137 v -45 z" id="path7" style="fill:#ccffcc" />
  <path d="m 36.7,0.14 h 36.567 v 45 H 0.137 v -45 z" id="path9" style="fill:none;stroke:#000000;stroke-width:0.28299999;stroke-linejoin:round" />
  <path d="m 59.2,18.42 h 4.217 v 8.433 H 54.984 V 18.42 z" id="path11" style="fill:#ffffff" />
  <g id="g13" style="fill:none;stroke:#000000;stroke-linejoin:round">
    <path d="m 59.2,18.42 h 4.217 v 8.433 H 54.984 V 18.42 z" id="path15" style="stroke-width:0.28299999" />
    <path d="M 28.27,22.64 H 38.616" id="path17" style="stroke-width:0.88599998" />
  </g>
  <path d="M 38.58,26.68 50.769,22.64 38.58,18.53 z" id="path19" />
  <path d="m 14.17,12.79 h 9.85 V 32.491 H 4.319 V 12.79 z" id="path21" style="fill:#ffffff" />
  <g id="g23" style="fill:none;stroke:#000000">
    <path d="m 14.17,12.79 h 9.85 V 32.491 H 4.319 V 12.79 z" id="path25" style="stroke-width:0.28299999;stroke-linejoin:round" />
    <path d="m 54.28,33.98 h 0.283" id="path27" style="stroke-width:0.035" />
  </g>
  <path d="m 48.11,35.18 c -0.39,0 -0.709,-0.071 -1.028,-0.283 -0.319,-0.177 -0.531,-0.39 -0.709,-0.709 -0.213,-0.319 -0.283,-0.638 -0.283,-0.992 0,-0.39 0.071,-0.709 0.283,-1.028 0.177,-0.319 0.39,-0.532 0.709,-0.709 0.319,-0.213 0.638,-0.283 1.028,-0.283 0.354,0 0.673,0.071 0.992,0.283 0.319,0.177 0.531,0.39 0.709,0.709 0.213,0.319 0.283,0.638 0.283,1.028 0,0.354 -0.071,0.673 -0.283,0.992 -0.177,0.319 -0.39,0.532 -0.709,0.709 -0.319,0.213 -0.638,0.283 -0.992,0.283" id="path39" style="fill:#ffffff" />
  <path d="m 48.11,35.18 c -0.39,0 -0.709,-0.071 -1.028,-0.283 -0.319,-0.177 -0.531,-0.39 -0.709,-0.709 -0.213,-0.319 -0.283,-0.638 -0.283,-0.992 0,-0.39 0.071,-0.709 0.283,-1.028 0.177,-0.319 0.39,-0.532 0.709,-0.709 0.319,-0.213 0.638,-0.283 1.028,-0.283 0.354,0 0.673,0.071 0.992,0.283 0.319,0.177 0.531,0.39 0.709,0.709 0.213,0.319 0.283,0.638 0.283,1.028 0,0.354 -0.071,0.673 -0.283,0.992 -0.177,0.319 -0.39,0.532 -0.709,0.709 -0.319,0.213 -0.638,0.283 -0.992,0.283 z" id="b" style="fill:none;stroke:#000000;stroke-width:0.106;stroke-linejoin:round" />
  <use id="use42" x="0" y="0" width="73.419998" height="45.279999" xlink:href="#b" />
  <path d="m 48.11,41.49 c -0.39,0 -0.709,-0.071 -1.028,-0.283 -0.319,-0.177 -0.531,-0.39 -0.709,-0.709 -0.213,-0.319 -0.283,-0.638 -0.283,-0.992 0,-0.39 0.071,-0.709 0.283,-1.028 0.177,-0.319 0.39,-0.532 0.709,-0.709 0.319,-0.213 0.638,-0.283 1.028,-0.283 0.354,0 0.673,0.071 0.992,0.283 0.319,0.177 0.531,0.39 0.709,0.709 0.213,0.319 0.283,0.638 0.283,1.028 0,0.354 -0.071,0.673 -0.283,0.992 -0.177,0.319 -0.39,0.532 -0.709,0.709 -0.319,0.213 -0.638,0.283 -0.992,0.283" id="path44" style="fill:#ffffff" />
  <path d="m 48.11,41.49 c -0.39,0 -0.709,-0.071 -1.028,-0.283 -0.319,-0.177 -0.531,-0.39 -0.709,-0.709 -0.213,-0.319 -0.283,-0.638 -0.283,-0.992 0,-0.39 0.071,-0.709 0.283,-1.028 0.177,-0.319 0.39,-0.532 0.709,-0.709 0.319,-0.213 0.638,-0.283 1.028,-0.283 0.354,0 0.673,0.071 0.992,0.283 0.319,0.177 0.531,0.39 0.709,0.709 0.213,0.319 0.283,0.638 0.283,1.028 0,0.354 -0.071,0.673 -0.283,0.992 -0.177,0.319 -0.39,0.532 -0.709,0.709 -0.319,0.213 -0.638,0.283 -0.992,0.283 z" id="c" style="fill:none;stroke:#000000;stroke-width:0.106;stroke-linejoin:round" />
  <use id="use47" x="0" y="0" width="73.419998" height="45.279999" xlink:href="#c" />
  <path d="m 44.71,37.74 c -0.283,0 -0.531,-0.071 -0.78,-0.213 -0.248,-0.142 -0.39,-0.283 -0.531,-0.531 -0.142,-0.248 -0.213,-0.496 -0.213,-0.744 0,-0.283 0.071,-0.531 0.213,-0.78 0.142,-0.248 0.283,-0.39 0.531,-0.531 0.248,-0.142 0.496,-0.213 0.78,-0.213 0.248,0 0.496,0.071 0.744,0.213 0.248,0.142 0.39,0.283 0.531,0.531 0.142,0.248 0.213,0.496 0.213,0.78 0,0.248 -0.071,0.496 -0.213,0.744 -0.142,0.248 -0.283,0.39 -0.531,0.531 -0.248,0.142 -0.496,0.213 -0.744,0.213" id="path49" style="fill:#ffffff" />
  <path d="m 44.71,37.74 c -0.283,0 -0.531,-0.071 -0.78,-0.213 -0.248,-0.142 -0.39,-0.283 -0.531,-0.531 -0.142,-0.248 -0.213,-0.496 -0.213,-0.744 0,-0.283 0.071,-0.531 0.213,-0.78 0.142,-0.248 0.283,-0.39 0.531,-0.531 0.248,-0.142 0.496,-0.213 0.78,-0.213 0.248,0 0.496,0.071 0.744,0.213 0.248,0.142 0.39,0.283 0.531,0.531 0.142,0.248 0.213,0.496 0.213,0.78 0,0.248 -0.071,0.496 -0.213,0.744 -0.142,0.248 -0.283,0.39 -0.531,0.531 -0.248,0.142 -0.496,0.213 -0.744,0.213 z" id="d" style="fill:none;stroke:#000000;stroke-width:0.106;stroke-linejoin:round" />
  <use id="use52" x="0" y="0" width="73.419998" height="45.279999" xlink:href="#d" />
</g>
</svg>
