<?xml version="1.0" encoding="utf-8" standalone="no"?>
<svg xmlns:inkscape="http://www.inkscape.org/namespaces/inkscape" xmlns="http://www.w3.org/2000/svg" xmlns:svg="http://www.w3.org/2000/svg" xmlns:oryx="http://www.b3mn.org/oryx" xmlns:xlink="http://www.w3.org/1999/xlink" width="82" height="62" version="1.0">
  <g pointer-events="fill" oryx:minimumSize="80 60">
    <defs>
      <radialGradient id="background" cx="10%" cy="10%" r="100%" fx="10%" fy="10%">
        <stop offset="0%" stop-color="#ffffff" stop-opacity="1" />
        <stop id="fill_el" offset="100%" stop-color="#ffffcc" stop-opacity="1" />
      </radialGradient>
    </defs>
    <rect id="text_frame" oryx:anchors="bottom top right left" x="1" y="1" width="78" height="58" rx="10" ry="10" stroke="none" stroke-width="2" fill="none" />
    <rect id="bg_frame" oryx:resize="vertical horizontal" x="0" y="0" width="80" height="60" rx="4" ry="4" stroke="black" stroke-width="1" fill="url(#background) #ffffcc" />
    <text id="text2" oryx:anchors="left top" oryx:align="center top" oryx:fittoelem="text_frame" font-weight="bold" font-family="Helvetica" font-size="9" x="40" y="40" fill="black">XMPP</text>
    <g transform="scale(0.8,0.8) translate(5,2)">
      <defs>
        <marker id="arrow" viewBox="0 0 10 10" refX="1" refY="5" markerUnits="strokeWidth" orient="auto" markerWidth="8" markerHeight="14">
          <path d="M 0 0 L 10 5 L 0 10 z" />
        </marker>
        <marker id="end" refX="10" refY="5" markerUnits="userSpaceOnUse" markerWidth="10" markerHeight="10" orient="auto">
          <path id="arrowhead2" d="M 0 0 L 10 5 L 0 10 L 0 0" fill="black" stroke="black" />
        </marker>
      </defs>
      <g transform="scale(0.55,0.55)">
<lineargradient id="SVGID_1_" y2=".00048828" gradientUnits="userSpaceOnUse" x2="-1807.2" gradientTransform="translate(1916)" y1="125.86" x1="-1807.2">
  <stop stop-color="#1b3967" offset=".011" />
  <stop stop-color="#13b5ea" offset=".467" />
  <stop stop-color="#002b5c" offset=".9945" />
</lineargradient>
<path d="m 40.700281,4.0277254 c 0.023,0.3727377 -0.533376,0.2747983 -0.533376,0.6509426 0,10.943956 -13.355303,27.48863 -26.832153,30.713251 l 0,0.335549 C 31.240474,34.163276 51.181745,16.764115 51.632696,8.5165e-4 L 40.702372,4.0288609 Z" id="path3" inkscape:connector-curvature="0" style="fill:url(#SVGID_1_)" />
<path d="m 35.904079,5.0982464 c 0.023,0.3727378 0.03614,0.7474627 0.03614,1.1236071 0,10.9439555 -9.168332,25.6905175 -22.645183,28.9162745 l 0,0.464716 C 30.934365,34.517561 44.89442,17.711715 44.89442,4.6028714 c 0,-0.674221 -0.03733,-1.3424805 -0.110797,-2.0030752 L 35.904975,5.096827 Z" id="path5" inkscape:connector-curvature="0" style="fill:#e96d1f" />
<lineargradient id="SVGID_2_" y2="1.279e-13" gradientUnits="userSpaceOnUse" x2="-1073.2" gradientTransform="matrix(-1 0 0 1 -1008.2 0)" y1="126.85" x1="-1073.2">
  <stop stop-color="#1b3967" offset=".011" />
  <stop stop-color="#13b5ea" offset=".467" />
  <stop stop-color="#002b5c" offset=".9945" />
</lineargradient>
<path d="m 10.928289,4.0277254 c -0.023,0.3727377 0.533674,0.2747983 0.533674,0.6509426 0,10.943956 13.904208,27.640507 27.381955,30.866548 l 0,0.465283 C 20.93939,34.443468 0.45040884,16.763264 -5.4167804e-4,0 L 10.929483,4.0280093 Z" id="path7" inkscape:connector-curvature="0" style="fill:url(#SVGID_2_)" />
<path d="m 16.343279,5.3741802 c -0.0227,0.3727378 -0.03584,0.7466111 -0.03584,1.1233232 0,10.9439556 9.168033,25.6905176 22.645182,28.9162746 l 0,0.465284 C 21.319562,35.087029 7.3532369,17.987649 7.3532369,4.8790891 c 0,-0.674221 0.038226,-1.3424805 0.1107964,-2.0030752 l 8.8786477,2.4975986 z" id="path9" inkscape:connector-curvature="0" style="fill:#a0ce67" />
<path d="m 7.3786215,2.7201624 2.2747617,0.7727283 c -0.012244,0.273095 -0.01971,0.6398712 -0.01971,0.9155212 0,11.7013541 11.1307128,27.8784001 26.0631478,30.4094971 0.969095,0.308864 2.251169,0.589624 3.264762,0.83206 l 0,0.464999 C 19.47395,34.536581 5.7823761,15.713466 7.3771283,2.7190269 Z" id="path11" inkscape:connector-curvature="0" style="fill:#439639" />
<path d="m 44.896211,2.4865271 -2.339268,0.7451917 c 0.01224,0.2733788 0.05704,0.6253932 0.05704,0.9007592 0,11.701354 -11.131012,27.878684 -26.063746,30.409497 -0.968498,0.309148 -2.251169,0.589624 -3.264165,0.832344 l 0,0.465283 C 33.696512,33.381179 46.489172,15.479831 44.89442,2.4862432 Z" id="path13" inkscape:connector-curvature="0" style="fill:#d9541e" />
<path d="m 4.3512802,47.325773 -3.99822889,-4.158879 3.47709729,0 2.7257122,2.914906 2.7263095,-2.914906 3.4770967,0 -3.9979296,4.157744 4.3007536,4.181022 -3.6105903,0 -2.8959385,-3.029027 -2.894744,3.029027 -3.6111879,0 4.3016499,-4.18159 z" id="path15" inkscape:connector-curvature="0" />
<path d="m 14.063141,43.166894 4.132021,0 3.041079,5.366799 3.041079,-5.366799 4.130826,0 0,8.338766 -2.616707,0 0,-5.988786 -0.02389,0 -3.526074,5.988786 -2.010762,0 -3.526075,-5.988786 -0.02449,0 0,5.988786 -2.617305,0 0,-8.33763 z" id="path17" inkscape:connector-curvature="0" />
<path d="m 30.23584,43.166894 7.330484,0 c 2.556083,0 3.173975,1.221263 3.173975,2.85671 l 0,0.714248 c 0,1.24369 -0.56981,2.671335 -2.471268,2.671335 l -5.343913,0 0,2.096473 -2.689278,0 0,-8.340469 z m 2.687784,4.170235 4.180103,0 c 0.629837,0 0.873231,-0.390907 0.873231,-0.886566 l 0,-0.322206 c 0,-0.564927 -0.291475,-0.887701 -1.103186,-0.887701 l -3.950148,0 0,2.095053 z" id="path19" inkscape:connector-curvature="0" />
<path d="m 42.199468,43.166894 7.330484,0 c 2.55668,0 3.174572,1.221263 3.174572,2.85671 l 0,0.714248 c 0,1.24369 -0.569511,2.671335 -2.471268,2.671335 l -5.343615,0 0,2.096473 -2.690173,0 0,-8.340469 z m 2.690771,4.170235 4.179803,0 c 0.630136,0 0.872634,-0.390907 0.872634,-0.886566 l 0,-0.322206 c 0,-0.564927 -0.290878,-0.887701 -1.102887,-0.887701 l -3.94955,0 0,2.095053 z" id="path21" inkscape:connector-curvature="0" />
      </g>
      <line x1="1" y1="33" x2="42" y2="33" stroke="black" stroke-width="1" marker-end="url(#end)" />
      <rect x="52" y="24" width="27" height="18" rx="1" ry="1" fill="#ffffff" stroke="#000000" stroke-width="0.5" />
    </g>
  </g>
</svg>
